# xmcd CD database file
# Copyright (C) 1997 Ti Kan
#
# Track frame offsets:
#  150
#  19981
#  37457
#  59505
#  78266
#  98117
#  115715
#  134853
#  155959
#  174540
#  199570
#  215098
#  236833
#  256554
#
# Disc length: 3739 seconds
#
# Revision: 1
# Processed by: cddbd v1.4b41PL1 Copyright (c) Steve Scherf et al.
# Submitted via: CDWizzard Release:4.32
#
DISCID=d00e990e
DTITLE=Simone Hines - Simone Hines
DYEAR=1900
DGENRE=
TTITLE0=Yeah! Yeah!  Yeah!
TTITLE1=The Way That You Feel
TTITLE2=What Difference (Does It Make)
TTITLE3=Best Of My Love
TTITLE4=Only Fools Fool Around
TTITLE5=Every Little Thing
TTITLE6=Never Been Alone
TTITLE7=I'm Ready
TTITLE8=Richest Woman In The World
TTITLE9=The Other Man
TTITLE10=Every Now And Then
TTITLE11=Call Me Up
TTITLE12=A Chance To Love
TTITLE13=Where Do I Go From Here
EXTD=
EXTT0=
EXTT1=
EXTT2=
EXTT3=
EXTT4=
EXTT5=
EXTT6=
EXTT7=
EXTT8=
EXTT9=
EXTT10=
EXTT11=
EXTT12=
EXTT13=
PLAYORDER=
